<svg width="137" height="135" viewBox="0 0 137 135" fill="none" xmlns="http://www.w3.org/2000/svg">
<g id="cookies-svgrepo-com 1" clip-path="url(#clip0_1_3)">
<g id="cockie">
<path id="Vector" d="M128.352 65.4856L121.837 66.7692C119.67 67.1963 117.491 66.0855 116.593 64.095L109.615 48.6265C109.024 47.3168 107.854 46.3486 106.443 46.0008L102.808 45.1057C100.704 44.5875 99.2286 42.7258 99.2286 40.5895V15.7685C99.2286 14.6086 98.7889 13.4904 97.9959 12.6329L89.219 3.14444C81.3059 0.675688 72.7758 -0.425669 63.9074 0.149663C29.8227 2.36187 2.21101 29.6782 0.131214 63.2681C-2.29544 102.465 29.2529 135 68.5148 135C105.963 135 136.375 105.396 137 68.6494L131.392 65.8869C130.452 65.4237 129.382 65.2826 128.352 65.4856Z" fill="#FFE6A1"/>
<g id="Group">
<path id="Vector_2" d="M89.7779 114.052C89.362 114.052 88.9522 114.028 88.5382 114.021C85.9421 116.89 82.1733 118.707 77.965 118.707C71.7665 118.707 66.5112 114.781 64.5851 109.32C56.1066 106.015 48.4592 101.097 42.0322 94.9406C41.0599 95.2294 40.0501 95.4308 38.9823 95.4308C33.1106 95.4308 28.3507 90.7414 28.3507 84.9567C28.3507 82.9365 28.9588 81.0668 29.9645 79.4668C29.8925 79.34 29.8157 79.2169 29.7443 79.0895C22.3696 78.597 16.5381 72.5628 16.5381 65.1724C16.5381 60.8168 18.563 56.929 21.7347 54.3677C21.4342 51.8019 21.2632 49.1973 21.2632 46.5516C21.2632 33.276 25.169 20.9064 31.8875 10.4671C12.7285 22.4347 6.86646e-05 43.4965 6.86646e-05 67.5001C6.86646e-05 104.779 30.6751 135 68.5148 135C92.8792 135 114.257 122.46 126.405 103.585C115.809 110.204 103.253 114.052 89.7779 114.052Z" fill="#FFD796"/>
<path id="Vector_3" d="M53.1581 55.8621C56.4201 55.8621 59.0645 53.2569 59.0645 50.0432C59.0645 46.8294 56.4201 44.2242 53.1581 44.2242C49.8961 44.2242 47.2516 46.8294 47.2516 50.0432C47.2516 53.2569 49.8961 55.8621 53.1581 55.8621Z" fill="#FFD796"/>
<path id="Vector_4" d="M115.766 94.2672C119.028 94.2672 121.673 91.662 121.673 88.4482C121.673 85.2345 119.028 82.6293 115.766 82.6293C112.504 82.6293 109.86 85.2345 109.86 88.4482C109.86 91.662 112.504 94.2672 115.766 94.2672Z" fill="#FFD796"/>
<path id="Vector_5" d="M62.0176 94.2672C64.301 94.2672 66.1521 92.4436 66.1521 90.194C66.1521 87.9444 64.301 86.1208 62.0176 86.1208C59.7343 86.1208 57.8832 87.9444 57.8832 90.194C57.8832 92.4436 59.7343 94.2672 62.0176 94.2672Z" fill="#FFD796"/>
<path id="Vector_6" d="M93.9126 57.0257C96.1959 57.0257 98.047 55.2021 98.047 52.9525C98.047 50.703 96.1959 48.8793 93.9126 48.8793C91.6292 48.8793 89.7781 50.703 89.7781 52.9525C89.7781 55.2021 91.6292 57.0257 93.9126 57.0257Z" fill="#FFD796"/>
<path id="Vector_7" d="M77.3746 20.9483C79.6579 20.9483 81.509 19.1247 81.509 16.8751C81.509 14.6256 79.6579 12.8019 77.3746 12.8019C75.0912 12.8019 73.2401 14.6256 73.2401 16.8751C73.2401 19.1247 75.0912 20.9483 77.3746 20.9483Z" fill="#FFD796"/>
</g>
<g id="Group_2">
<path id="Vector_8" d="M65.0767 59.9554L62.3455 64.4402C60.7129 67.1207 62.1731 70.5932 65.2512 71.3513L73.3809 73.3536C75.9127 73.9772 78.4783 72.4608 79.111 69.9665L80.041 66.3014C80.2292 65.56 80.2292 64.7848 80.041 64.0433L79.0577 60.1682C78.4462 57.7574 76.0203 56.245 73.5471 56.7323L68.2019 57.7854C66.8964 58.043 65.7619 58.8308 65.0767 59.9554Z" fill="#B97850"/>
<path id="Vector_9" d="M78.7135 88.7713L75.8651 93.4483C74.449 95.7736 75.3419 98.7945 77.8036 100.007L86.8716 104.474C89.5753 105.806 92.8356 104.328 93.5689 101.439L94.503 97.7585L95.5947 93.4556C96.2742 90.7778 94.4527 88.1086 91.6786 87.7181L83.433 86.5575C81.5515 86.2927 79.6915 87.1652 78.7135 88.7713Z" fill="#B97850"/>
<path id="Vector_10" d="M29.0005 61.0027L25.5242 66.7109C24.4087 68.5426 24.7018 70.8872 26.2348 72.3978L31.7058 77.788C33.6973 79.75 36.9774 79.571 38.7368 77.4044L43.4271 71.6281C44.3483 70.4938 44.6791 69.0006 44.3213 67.591L43.2516 63.3755C42.8086 61.63 41.3848 60.2926 39.5943 59.9396L33.9788 58.8332C32.0208 58.4472 30.028 59.3157 29.0005 61.0027Z" fill="#B97850"/>
<path id="Vector_11" d="M48.2376 23.2083L45.557 27.61C44.0018 30.1637 45.2468 33.4796 48.1145 34.4214L53.9316 36.3317C55.6294 36.8891 57.5013 36.4538 58.7669 35.2072L61.898 32.1225C63.0716 30.9663 63.5434 29.288 63.1409 27.7018L62.3219 24.4747C61.796 22.402 59.906 20.9481 57.7376 20.9481H52.2891C50.6298 20.9483 49.0916 21.8063 48.2376 23.2083Z" fill="#B97850"/>
<path id="Vector_12" d="M105.304 59.1865L102.569 61.881C100.724 63.6987 100.724 66.6463 102.569 68.4643L103.908 69.7829C105.346 71.1999 107.543 71.5511 109.362 70.6549L117.101 66.8427C119.082 65.8669 120.11 63.6668 119.572 61.5501L119.222 60.1687C118.61 57.7579 116.184 56.2455 113.711 56.7328L107.719 57.9135C106.804 58.0933 105.964 58.5366 105.304 59.1865Z" fill="#B97850"/>
<path id="Vector_13" d="M87.7347 25.9602L84.5967 30.0824C83.444 31.5964 83.3367 33.6478 84.3251 35.2707L87.2286 40.0382C88.6166 42.3173 91.6567 42.9908 93.9013 41.5166L99.7973 37.644C102.055 36.1617 102.584 33.1155 100.956 30.9776L97.7513 26.7673C97.1745 26.0098 96.3772 25.4434 95.4654 25.1441L93.009 24.3373C91.0794 23.7032 88.9549 24.3571 87.7347 25.9602Z" fill="#B97850"/>
<path id="Vector_14" d="M47.3004 99.5058L44.2151 103.305C42.2343 105.745 43.2061 109.375 46.1501 110.536L50.2944 112.169C51.4211 112.613 52.6777 112.613 53.8042 112.169L58.4551 110.336C61.2418 109.238 62.2968 105.892 60.6321 103.431L59.8332 102.251C59.3769 101.577 58.7503 101.032 58.0149 100.669L53.1038 98.2502C51.1102 97.2686 48.6921 97.792 47.3004 99.5058Z" fill="#B97850"/>
</g>
<g id="Group_3">
<path id="Vector_15" d="M37.5689 77.2351L32.0979 71.8451C30.5648 70.3348 30.2715 67.99 31.3873 66.1585L34.8636 60.4503C35.1601 59.9636 35.552 59.5683 35.9853 59.2287L33.9791 58.8337C32.021 58.448 30.028 59.3165 29.0005 61.0032L25.5242 66.7114C24.4087 68.5432 24.7018 70.8877 26.2348 72.3983L31.7058 77.7883C33.5517 79.6068 36.4898 79.563 38.3124 77.8249C38.0511 77.6543 37.7996 77.4626 37.5689 77.2351Z" fill="#A5694B"/>
<path id="Vector_16" d="M58.6639 34.6745L52.8468 32.7645C49.9794 31.8227 48.7338 28.5067 50.2893 25.9531L52.97 21.5514C53.1062 21.3272 53.2863 21.1429 53.4552 20.9483H52.2888C50.6292 20.9483 49.0911 21.8063 48.2371 23.2085L45.5564 27.61C44.0009 30.1637 45.246 33.4796 48.114 34.4214L53.931 36.3317C55.6289 36.8891 57.5007 36.4538 58.7664 35.2072L59.2067 34.7734C59.0257 34.7365 58.8421 34.7331 58.6639 34.6745Z" fill="#A5694B"/>
<path id="Vector_17" d="M77.8641 72.0152L69.7344 70.0129C66.656 69.2545 65.1958 65.7823 66.8287 63.1018L69.5599 58.617C69.885 58.083 70.317 57.6324 70.8151 57.2709L68.2019 57.7859C66.8966 58.043 65.7616 58.8311 65.0767 59.9559L62.3455 64.4407C60.7129 67.1212 62.1731 70.5937 65.2512 71.3518L73.3809 73.3541C75.0935 73.776 76.8064 73.2033 77.9409 72.0265C77.9152 72.0202 77.8898 72.0215 77.8641 72.0152Z" fill="#A5694B"/>
<path id="Vector_18" d="M91.6422 39.6355L88.7386 34.8681C87.7503 33.2452 87.8576 31.1944 89.0103 29.6798L92.1483 25.5578C92.4919 25.1062 92.9186 24.7523 93.381 24.4589L93.0088 24.3368C91.0791 23.7032 88.9546 24.3571 87.7342 25.9599L84.5964 30.0819C83.4437 31.5962 83.3364 33.6473 84.3248 35.2702L87.2284 40.0376C88.6118 42.3092 91.6353 42.9828 93.8775 41.5282C92.9791 41.1598 92.1836 40.5244 91.6422 39.6355Z" fill="#A5694B"/>
<path id="Vector_19" d="M107.7 69.4729C105.854 67.6549 105.854 64.7075 107.7 62.8895L110.435 60.1951C111.094 59.5454 111.934 59.1021 112.849 58.922L117.893 57.9283C116.814 56.9179 115.273 56.4246 113.711 56.7325L107.719 57.9132C106.804 58.0936 105.964 58.5366 105.304 59.1862L102.569 61.8807C100.724 63.6987 100.724 66.646 102.569 68.4641L103.908 69.7827C105.257 71.1119 107.264 71.4602 109.01 70.7643L107.7 69.4729Z" fill="#A5694B"/>
<path id="Vector_20" d="M83.657 99.6166C81.1953 98.404 80.3022 95.3831 81.7185 93.0577L84.567 88.381C84.9406 87.768 85.4687 87.3031 86.051 86.9263L83.4336 86.558C81.5515 86.293 79.6917 87.1652 78.7138 88.7712L75.8654 93.4483C74.4493 95.7736 75.3421 98.7945 77.8038 100.007L86.8719 104.474C88.6792 105.364 90.7189 104.98 92.1023 103.777L83.657 99.6166Z" fill="#A5694B"/>
<path id="Vector_21" d="M55.0195 111.391L50.8752 109.758C47.9314 108.598 46.9597 104.966 48.9402 102.527L52.0255 98.7277C52.2214 98.4865 52.4414 98.2755 52.6737 98.0825C50.7719 97.3651 48.5944 97.9119 47.3004 99.5058L44.2151 103.305C42.2343 105.745 43.2061 109.375 46.1501 110.536L50.2944 112.169C51.4211 112.613 52.6777 112.613 53.8042 112.169L55.4574 111.517C55.311 111.475 55.1619 111.447 55.0195 111.391Z" fill="#A5694B"/>
</g>
<path id="Vector_22" d="M18.8978 95.4287C18.5437 95.4287 18.1824 95.3493 17.8436 95.1832C16.6762 94.6081 16.203 93.2104 16.787 92.0603L19.1497 87.4052C19.7336 86.255 21.1489 85.7936 22.3195 86.3642C23.487 86.9395 23.9601 88.337 23.3762 89.4871L21.0135 94.1422C20.5994 94.958 19.7655 95.4287 18.8978 95.4287Z" fill="#C98850"/>
<path id="Vector_23" d="M61.427 125.689H59.0643C57.7596 125.689 56.7016 124.648 56.7016 123.362C56.7016 122.075 57.7596 121.034 59.0643 121.034H61.427C62.7317 121.034 63.7897 122.075 63.7897 123.362C63.7897 124.648 62.7317 125.689 61.427 125.689Z" fill="#925F4A"/>
<path id="Vector_24" d="M51.9743 81.4654C51.6203 81.4654 51.259 81.3861 50.9201 81.2199C49.7527 80.6446 49.2795 79.2469 49.8635 78.097L52.2262 73.4419C52.8088 72.2941 54.2244 71.8303 55.3961 72.4009C56.5635 72.9763 57.0367 74.3737 56.4527 75.5238L54.09 80.179C53.676 80.995 52.8418 81.4654 51.9743 81.4654Z" fill="#C98850"/>
<g id="Group_4">
<path id="Vector_25" d="M37.799 44.2242C37.445 44.2242 37.0837 44.1448 36.7448 43.9787L32.0197 41.651C30.8523 41.0757 30.3791 39.6782 30.9631 38.5281C31.5457 37.3803 32.9623 36.9142 34.133 37.4871L38.8581 39.8146C40.0255 40.3899 40.4987 41.7873 39.9147 42.9375C39.5007 43.7535 38.6664 44.2242 37.799 44.2242Z" fill="#925F4A"/>
<path id="Vector_26" d="M66.1523 11.6378H61.4272C60.1225 11.6378 59.0646 10.5969 59.0646 9.31014C59.0646 8.02342 60.1225 6.98245 61.4272 6.98245H66.1523C67.4571 6.98245 68.515 8.02342 68.515 9.31014C68.515 10.5969 67.4571 11.6378 66.1523 11.6378Z" fill="#925F4A"/>
</g>
<path id="Vector_27" d="M75.605 46.5516C74.7373 46.5516 73.9033 46.0812 73.4893 45.2652L71.1266 40.6101C70.5426 39.4599 71.0158 38.0619 72.1832 37.4871C73.3531 36.9142 74.7707 37.3803 75.3531 38.5281L77.7158 43.1832C78.2998 44.3334 77.8266 45.7314 76.6592 46.3062C76.3198 46.4723 75.959 46.5516 75.605 46.5516Z" fill="#C98850"/>
<g id="Group_5">
<path id="Vector_28" d="M10.7673 57.9491C10.4496 57.7949 10.1614 57.5663 9.93149 57.2696C9.14197 56.2455 9.3451 54.7856 10.3849 54.008L14.5926 50.8608C15.6313 50.0827 17.1122 50.2847 17.9033 51.3075C18.6928 52.3316 18.4897 53.7915 17.4499 54.5691L13.2424 57.716C12.5045 58.2676 11.5453 58.3267 10.7673 57.9491Z" fill="#925F4A"/>
<path id="Vector_29" d="M99.2283 83.7931C98.6237 83.7931 98.0192 83.5658 97.558 83.1113L92.8329 78.4562C91.9101 77.547 91.9101 76.0739 92.8329 75.1647C93.7557 74.2556 95.251 74.2556 96.1738 75.1647L100.899 79.8199C101.822 80.729 101.822 82.2021 100.899 83.1113C100.437 83.5658 99.8327 83.7931 99.2283 83.7931Z" fill="#925F4A"/>
</g>
<path id="Vector_30" d="M103.953 107.069C103.349 107.069 102.744 106.842 102.283 106.387C101.36 105.478 101.36 104.005 102.283 103.096L104.646 100.768C105.569 99.8589 107.064 99.8589 107.987 100.768C108.91 101.677 108.91 103.15 107.987 104.059L105.624 106.387C105.162 106.842 104.558 107.069 103.953 107.069Z" fill="#C98850"/>
</g>
<g id="crumbs">
<g id="Group_6">
<path id="Vector_31" d="M105.236 2.57495V9.07123C105.236 10.8931 107.36 12.1385 109.313 11.4618L118.233 8.37207C119.362 7.98093 120.102 7.03414 120.102 5.98147V2.57495C120.102 1.15301 118.77 0 117.129 0H108.209C106.568 0 105.236 1.15301 105.236 2.57495Z" fill="#FFE6A1"/>
<path id="Vector_32" d="M111.593 22.8741L109.695 34.3762C109.249 37.0818 111.321 39.6182 114.416 40.154L119.861 41.097C122.224 41.5066 124.638 40.6403 125.975 38.9039L128.022 36.2438C129.083 34.8656 129.314 33.1298 128.642 31.5792L122.44 17.2546C121.668 15.473 119.029 14.978 117.475 16.3235L113.275 19.9611C112.365 20.7489 111.775 21.7712 111.593 22.8741Z" fill="#FFE6A1"/>
</g>
<g id="Group_7">
<path id="Vector_33" d="M126.498 36.5232L121.053 35.5802C117.958 35.0441 115.886 32.5077 116.333 29.8023L118.23 18.3005C118.399 17.2747 118.952 16.3378 119.755 15.5754C118.948 15.5401 118.12 15.765 117.475 16.3227L113.275 19.9605C112.365 20.7483 111.774 21.7707 111.593 22.8735L109.696 34.3753C109.249 37.0812 111.322 39.6174 114.416 40.1532L119.861 41.0962C122.224 41.5051 124.638 40.6394 125.975 38.903L127.766 36.576C127.345 36.5833 126.923 36.597 126.498 36.5232Z" fill="#FFD796"/>
<path id="Vector_34" d="M115.26 6.31194C113.307 6.98835 111.182 5.74288 111.182 3.92134V0H108.209C106.567 0 105.236 1.15301 105.236 2.57495V9.07123C105.236 10.8931 107.36 12.1385 109.313 11.4618L118.233 8.37207C119.361 7.98093 120.101 7.03443 120.101 5.98147V4.63479L115.26 6.31194Z" fill="#FFD796"/>
<path id="Vector_35" d="M127.53 48.4307L125.773 51.4747C125.355 52.1995 125.355 53.0527 125.773 53.7775L126.575 55.1671C127.375 56.5523 129.395 57.0172 130.883 56.1582L135.676 53.391C136.503 52.9133 137 52.1094 137 51.2487V48.4745C137 46.7171 135.012 45.476 133.087 46.032L129.249 47.1398C128.501 47.3553 127.883 47.8197 127.53 48.4307Z" fill="#FFD796"/>
</g>
</g>
</g>
<defs>
<clipPath id="clip0_1_3">
<rect width="137" height="135" fill="white"/>
</clipPath>
</defs>
</svg>
